HIERARCHY
ROOT Hips
{
  OFFSET 55.2346 91.5967 14.0732
  CHANNELS 6 Xposition Yposition Zposition Zrotation Xrotation Yrotation
  JOINT spine
  {
    OFFSET 0 6.84637 0.3937
    CHANNELS 3 Zrotation Xrotation Yrotation
    JOINT spine1
    {
      OFFSET 0 9.49621 0
      CHANNELS 3 Zrotation Xrotation Yrotation
      JOINT spine2
      {
        OFFSET 0 9.09909 0
        CHANNELS 3 Zrotation Xrotation Yrotation
        JOINT Neck
        {
          OFFSET 0 23.3612 1.11378
          CHANNELS 3 Zrotation Xrotation Yrotation
          JOINT Head
          {
            OFFSET 0 7.05802 0
            CHANNELS 3 Zrotation Xrotation Yrotation
            End Site
            {
              OFFSET 0 17.0844 -5.63419
            }
          }
        }
        JOINT RightShoulder
        {
          OFFSET -3.83136 9.82631 -0.533491
          CHANNELS 3 Zrotation Xrotation Yrotation
          JOINT RightArm
          {
            OFFSET 0 12.8881 0
            CHANNELS 3 Zrotation Xrotation Yrotation
            JOINT RightArmRoll
            {
              OFFSET 0 6.50617 0
              CHANNELS 3 Zrotation Xrotation Yrotation
              JOINT RightForeArm
              {
                OFFSET 0 18.9501 0
                CHANNELS 3 Zrotation Xrotation Yrotation
                JOINT RightForeArmRoll
                {
                  OFFSET 0 7.30092 0
                  CHANNELS 3 Zrotation Xrotation Yrotation
                  JOINT RightHand
                  {
                    OFFSET 0 14.6514 0
                    CHANNELS 3 Zrotation Xrotation Yrotation
                    End Site
                    {
                      OFFSET 0 0 0
                    }
                  }
                }
              }
            }
          }
        }
        JOINT LeftShoulder
        {
          OFFSET 3.83136 9.82631 -0.533491
          CHANNELS 3 Zrotation Xrotation Yrotation
          JOINT LeftArm
          {
            OFFSET 0 12.8881 0
            CHANNELS 3 Zrotation Xrotation Yrotation
            JOINT LeftArmRoll
            {
              OFFSET 0 6.50617 0
              CHANNELS 3 Zrotation Xrotation Yrotation
              JOINT LeftForeArm
              {
                OFFSET 0 18.9501 0
                CHANNELS 3 Zrotation Xrotation Yrotation
                JOINT LeftForeArmRoll
                {
                  OFFSET 0 7.30092 0
                  CHANNELS 3 Zrotation Xrotation Yrotation
                  JOINT LeftHand
                  {
                    OFFSET 0 14.6514 0
                    CHANNELS 3 Zrotation Xrotation Yrotation
                    End Site
                    {
                      OFFSET 0 0 0
                    }
                  }
                }
              }
            }
          }
        }
      }
    }
  }
  JOINT RightUpLeg
  {
    OFFSET -6.06837 -1.11278 -0.933477
    CHANNELS 3 Zrotation Xrotation Yrotation
    JOINT RightUpLegRoll
    {
      OFFSET 0 17.1796 0
      CHANNELS 3 Zrotation Xrotation Yrotation
      JOINT RightLeg
      {
        OFFSET 0 -21.2743 0
        CHANNELS 3 Zrotation Xrotation Yrotation
        JOINT RightLegRoll
        {
          OFFSET 0 21.3439 0
          CHANNELS 3 Zrotation Xrotation Yrotation
          JOINT RightFoot
          {
            OFFSET 0 17.7652 0
            CHANNELS 3 Zrotation Xrotation Yrotation
            JOINT RightToeBase
            {
              OFFSET 0 14.8508 0
              CHANNELS 3 Zrotation Xrotation Yrotation
              End Site
              {
                OFFSET 0.0062947 7.19214 -0.829004
              }
            }
          }
        }
      }
    }
  }
  JOINT LeftUpLeg
  {
    OFFSET 6.06837 -1.11278 -0.933477
    CHANNELS 3 Zrotation Xrotation Yrotation
    JOINT LeftUpLegRoll
    {
      OFFSET 0 17.1797 0
      CHANNELS 3 Zrotation Xrotation Yrotation
      JOINT LeftLeg
      {
        OFFSET 0 21.2742 0
        CHANNELS 3 Zrotation Xrotation Yrotation
        JOINT LeftLegRoll
        {
          OFFSET 0 21.5412 0
          CHANNELS 3 Zrotation Xrotation Yrotation
          JOINT LeftFoot
          {
            OFFSET 0 17.5679 0
            CHANNELS 3 Zrotation Xrotation Yrotation
            JOINT LeftToeBase
            {
              OFFSET 0 14.8508 0
              CHANNELS 3 Zrotation Xrotation Yrotation
              End Site
              {
                OFFSET -0.0282102 7.19214 -0.829004
              }
            }
          }
        }
      }
    }
  }
}
MOTION
Frames: 7
Frame Time: 0.00208333
55.0422 91.6117 12.8557 0.0551856 -0.573911 0.0126819 -0.0152423 -2.4643 -0.0391293 -0.0366867 -0.926843 -0.0748372 -0.0356912 0.71823 -0.0742096 0.0265521 20.4874 0.0752825 -0.313953 0.707793 0.0295619 42.4116 -12.2504 -8.07331 55.1482 26.5976 46.4733 -1.50428e-05 -2.38299e-06 -5.6327e-06 -3.47881 2.50447 -0.817916 -5.01972e-06 -3.55225e-06 -3 8.02898 -4.95144 0.697663 -40.22 -12.5204 8.39053 -46.0293 35.3005 -55.9197 -2.00473e-07 1.88888e-06 -6.1997e-08 3.61459 -0.0280185 -0.582145 9.38484e-06 -1.19803e-06 3.07701 -8.02923 -4.95143 -0.697652 176.659 4.83986 0.545076 -180 7.01561e-15 178.987 177.697 6.79997 179.936 -1.28083e-06 6.95289e-06 0.0797061 -18.7024 68.0033 19.5274 8.13649 25.2327 -3.48774 -176.606 1.80978 0.775658 4.54188e-06 -4.6773e-06 -1.07147 -1.6139 -7.0482 0.109862 5.36346e-07 -3.52843e-06 -0.0859109 18.8294 68.1573 -19.6522 -8.13649 25.2327 3.48774 
55.043 91.61 12.8583 0.0543844 -0.575324 0.0111821 -0.0154374 -2.46363 -0.0390992 -0.0367849 -0.925619 -0.0745311 -0.0357904 0.719455 -0.0738975 0.0265273 20.4772 0.0757238 -0.312644 0.71655 0.0295992 42.4116 -12.2547 -8.0762 55.1572 26.5945 46.4668 -1.50428e-05 -2.38299e-06 -5.6327e-06 -3.47545 2.53183 -0.816512 -5.01972e-06 -3.55225e-06 -3 8.02898 -4.95144 0.697663 -40.2185 -12.5223 8.39161 -46.0274 35.3042 -55.9241 -2.00473e-07 1.88888e-06 -6.1997e-08 3.6169 -0.0280177 -0.581385 9.38484e-06 -1.19803e-06 3.07701 -8.02923 -4.95143 -0.697652 176.659 4.84214 0.545157 -180 7.01561e-15 178.987 177.696 6.80497 179.936 -1.28083e-06 6.95289e-06 0.0797086 -18.7028 68.0039 19.5279 8.13649 25.2327 -3.48774 -176.606 1.80685 0.77644 4.54188e-06 -4.6773e-06 -1.07146 -1.61285 -7.04425 0.110129 5.36346e-07 -3.52843e-06 -0.0859091 18.8284 68.1561 -19.6511 -8.13649 25.2327 3.48774 
55.0538 91.6173 12.8575 0.0536113 -0.576604 0.00964287 -0.0155923 -2.46302 -0.0390659 -0.0367964 -0.924476 -0.0742436 -0.0358033 0.720597 -0.0736057 0.02528 20.467 0.0764399 -0.310471 0.725163 0.0295656 42.4105 -12.2592 -8.07928 55.1667 26.5923 46.4609 -1.50428e-05 -2.38299e-06 -5.6327e-06 -3.47262 2.55729 -0.815191 -5.01972e-06 -3.55225e-06 -3 8.02898 -4.95144 0.697663 -40.2178 -12.5241 8.39256 -46.0247 35.3076 -55.9285 -2.00473e-07 1.88888e-06 -6.1997e-08 3.61894 -0.0280169 -0.580632 9.38484e-06 -1.19803e-06 3.07701 -8.02923 -4.95143 -0.697652 176.66 4.84442 0.545243 -180 7.01561e-15 178.987 177.696 6.80972 179.936 -1.28083e-06 6.95289e-06 0.079711 -18.7033 68.0043 19.5283 8.13649 25.2327 -3.48774 -176.606 1.80419 0.777233 4.54188e-06 -4.6773e-06 -1.07146 -1.61183 -7.04057 0.110384 5.36346e-07 -3.52843e-06 -0.0859073 18.8274 68.155 -19.6501 -8.13649 25.2327 3.48774 
55.0505 91.6151 12.8481 0.0528854 -0.5777 0.00804318 -0.0156981 -2.46248 -0.039031 -0.0367026 -0.923455 -0.0739859 -0.0357112 0.721618 -0.0733458 0.0225513 20.4571 0.0775062 -0.307243 0.733439 0.0294767 42.4081 -12.2637 -8.08249 55.1765 26.5911 46.4557 -1.50428e-05 -2.38299e-06 -5.6327e-06 -3.47044 2.58013 -0.813989 -5.01972e-06 -3.55225e-06 -3 8.02898 -4.95144 0.697663 -40.2181 -12.5256 8.39333 -46.0211 35.3105 -55.9327 -2.00473e-07 1.88888e-06 -6.19971e-08 3.62059 -0.0280161 -0.579899 9.38484e-06 -1.19803e-06 3.07701 -8.02923 -4.95143 -0.697652 176.66 4.84668 0.545331 -180 7.01561e-15 178.987 177.696 6.81404 179.937 -1.28083e-06 6.95289e-06 0.0797135 -18.7036 68.0047 19.5287 8.13649 25.2327 -3.48774 -176.606 1.80192 0.778019 4.54188e-06 -4.6773e-06 -1.07145 -1.61087 -7.03726 0.110621 5.36346e-07 -3.52843e-06 -0.0859054 18.8266 68.154 -19.6492 -8.13649 25.2327 3.48774 
55.0485 91.6119 12.8498 0.0522258 -0.57856 0.0063622 -0.0157463 -2.46204 -0.0389964 -0.0364847 -0.922596 -0.0737689 -0.0354954 0.722477 -0.0731293 0.0180823 20.4477 0.0789981 -0.30277 0.741184 0.0293484 42.4041 -12.2682 -8.08579 55.1866 26.5912 46.4514 -1.50428e-05 -2.38299e-06 -5.6327e-06 -3.46905 2.59964 -0.812939 -5.01972e-06 -3.55225e-06 -3 8.02898 -4.95144 0.697663 -40.2197 -12.5269 8.39388 -46.0164 35.3128 -55.9367 -2.00473e-07 1.88888e-06 -6.1997e-08 3.62174 -0.0280153 -0.5792 9.38484e-06 -1.19803e-06 3.07701 -8.02923 -4.95143 -0.697652 176.66 4.8489 0.545416 -180 7.01561e-15 178.987 177.696 6.81785 179.937 -1.28083e-06 6.95289e-06 0.079716 -18.7038 68.0049 19.529 8.13649 25.2327 -3.48774 -176.606 1.80014 0.778782 4.54188e-06 -4.6773e-06 -1.07144 -1.61 -7.03446 0.110833 5.36346e-07 -3.52843e-06 -0.0859036 18.8259 68.1532 -19.6485 -8.13649 25.2327 3.48774 
55.0549 91.6144 12.8532 0.0516515 -0.57913 0.00457903 -0.0157279 -2.46173 -0.0389637 -0.0361241 -0.921938 -0.073604 -0.0351371 0.723135 -0.0729679 0.0116143 20.439 0.080991 -0.29686 0.748203 0.0291962 42.3985 -12.2725 -8.08912 55.1969 26.5928 46.448 -1.50428e-05 -2.38299e-06 -5.6327e-06 -3.46856 2.61509 -0.812079 -5.01972e-06 -3.55225e-06 -3 8.02898 -4.95144 0.697663 -40.2225 -12.5278 8.39418 -46.0104 35.3144 -55.9404 -2.00473e-07 1.88888e-06 -6.1997e-08 3.6223 -0.0280146 -0.578548 9.38484e-06 -1.19803e-06 3.07701 -8.02923 -4.95143 -0.697652 176.66 4.85109 0.545498 -180 7.01561e-15 178.987 177.696 6.82106 179.937 -1.28083e-06 6.95289e-06 0.0797184 -18.7039 68.005 19.5291 8.13649 25.2327 -3.48774 -176.606 1.79896 0.779505 4.54188e-06 -4.6773e-06 -1.07144 -1.60926 -7.0323 0.111011 5.36346e-07 -3.52843e-06 -0.0859017 18.8254 68.1526 -19.648 -8.13649 25.2327 3.48774 
55.0584 91.6154 12.8513 0.0511815 -0.579359 0.00267277 -0.0156341 -2.46156 -0.0389348 -0.035602 -0.921521 -0.0735021 -0.0346175 0.723552 -0.072873 0.00288833 20.4312 0.0835602 -0.289323 0.754301 0.0290357 42.3909 -12.2766 -8.09243 55.2074 26.596 46.4459 -1.50428e-05 -2.38299e-06 -5.6327e-06 -3.46908 2.62577 -0.811443 -5.01972e-06 -3.55225e-06 -3 8.02898 -4.95144 0.697663 -40.227 -12.5283 8.3942 -46.003 35.3151 -55.9438 -2.00473e-07 1.88888e-06 -6.19971e-08 3.62216 -0.0280139 -0.577959 9.38484e-06 -1.19803e-06 3.07701 -8.02923 -4.95143 -0.697652 176.66 4.85323 0.545571 -180 7.01561e-15 178.987 177.696 6.82347 179.937 -1.28083e-06 6.95289e-06 0.0797209 -18.7038 68.0049 19.529 8.13649 25.2327 -3.48774 -176.606 1.79851 0.780172 4.54188e-06 -4.6773e-06 -1.07143 -1.60866 -7.03088 0.11115 5.36346e-07 -3.52843e-06 -0.0858999 18.8252 68.1524 -19.6477 -8.13649 25.2327 3.48774 
